<?xml version="1.0" encoding="UTF-8"?>
<svg xmlns="http://www.w3.org/2000/svg" xmlns:xlink="http://www.w3.org/1999/xlink" viewBox="0 0 24 24" width="24px" height="24px">
<g id="surface78223956">
<path style=" stroke:none;fill-rule:nonzero;fill:rgb(100%,100%,100%);fill-opacity:1;" d="M 12 2 C 6.488281 2 2 6.488281 2 12 C 2 17.511719 6.488281 22 12 22 C 17.511719 22 22 17.511719 22 12 C 22 6.488281 17.511719 2 12 2 Z M 12 4 C 16.429688 4 20 7.570312 20 12 C 20 16.015625 17.066406 19.3125 13.21875 19.898438 L 13.21875 14.382812 L 15.546875 14.382812 L 15.910156 12.019531 L 13.21875 12.019531 L 13.21875 10.726562 C 13.21875 9.742188 13.539062 8.871094 14.457031 8.871094 L 15.933594 8.871094 L 15.933594 6.804688 C 15.675781 6.773438 15.125 6.695312 14.089844 6.695312 C 11.925781 6.695312 10.652344 7.839844 10.652344 10.445312 L 10.652344 12.019531 L 8.425781 12.019531 L 8.425781 14.382812 L 10.652344 14.382812 L 10.652344 19.878906 C 6.871094 19.242188 4 15.96875 4 12 C 4 7.570312 7.570312 4 12 4 Z M 12 4 "/>
</g>
</svg>
