<?xml version="1.0" encoding="UTF-8"?>
<svg xmlns="http://www.w3.org/2000/svg" xmlns:xlink="http://www.w3.org/1999/xlink" viewBox="0 0 24 24" width="24px" height="24px">
<g id="surface80380261">
<path style=" stroke:none;fill-rule:nonzero;fill:rgb(100%,100%,100%);fill-opacity:1;" d="M 5 3 C 3.898438 3 3 3.898438 3 5 L 3 19 C 3 20.101562 3.898438 21 5 21 L 19 21 C 20.101562 21 21 20.101562 21 19 L 21 5 C 21 3.898438 20.101562 3 19 3 Z M 5 5 L 19 5 L 19 19 L 5 19 Z M 14.566406 7.113281 C 13.195312 7.113281 12.082031 8.230469 12.082031 9.601562 C 12.082031 9.855469 12.167969 10.027344 12.167969 10.199219 C 10.109375 10.113281 8.308594 9.085938 7.109375 7.628906 C 6.851562 7.972656 6.765625 8.398438 6.765625 8.828125 C 6.765625 9.683594 7.195312 10.371094 7.882812 10.972656 C 7.453125 10.886719 7.109375 10.800781 6.765625 10.628906 C 6.765625 11.828125 7.621094 12.773438 8.738281 13.03125 C 8.480469 13.117188 8.308594 13.113281 8.050781 13.113281 C 7.964844 13.113281 7.792969 13.03125 7.621094 13.03125 C 7.964844 13.972656 8.820312 14.742188 9.933594 14.742188 C 9.078125 15.34375 7.964844 15.769531 6.847656 15.769531 L 6.25 15.769531 C 7.363281 16.457031 8.652344 16.886719 10.019531 16.886719 C 14.566406 16.886719 17.050781 13.113281 17.050781 9.859375 L 17.050781 9.515625 C 17.480469 9.171875 17.90625 8.742188 18.25 8.226562 C 17.738281 8.484375 17.308594 8.570312 16.792969 8.65625 C 17.308594 8.3125 17.738281 7.886719 17.90625 7.285156 C 17.480469 7.542969 16.964844 7.796875 16.363281 7.886719 C 15.9375 7.371094 15.253906 7.113281 14.566406 7.113281 Z M 14.566406 7.113281 "/>
</g>
</svg>
